<svg xmlns="http://www.w3.org/2000/svg" xmlns:xlink="http://www.w3.org/1999/xlink" width="500" zoomAndPan="magnify" viewBox="0 0 375 374.999991" height="500" preserveAspectRatio="xMidYMid meet" version="1.0"><defs><g/><clipPath id="27b3481a66"><path d="M 93.722656 114.304688 L 281.28125 114.304688 L 281.28125 176.96875 L 93.722656 176.96875 Z M 93.722656 114.304688 " clip-rule="nonzero"/></clipPath><clipPath id="5c1e4d37d4"><path d="M 156.269531 51.855469 L 218.714844 51.855469 L 218.714844 239.414062 L 156.269531 239.414062 Z M 156.269531 51.855469 " clip-rule="nonzero"/></clipPath></defs><rect x="-37.5" width="450" fill="#ffffff" y="-37.499999" height="449.999989" fill-opacity="1"/><rect x="-37.5" width="450" fill="#ffffff" y="-37.499999" height="449.999989" fill-opacity="1"/><g clip-path="url(#27b3481a66)"><path fill="#ff3333" d="M 93.722656 176.96875 L 93.722656 114.304688 L 281.28125 114.304688 L 281.28125 176.96875 Z M 93.722656 176.96875 " fill-opacity="1" fill-rule="nonzero"/></g><g clip-path="url(#5c1e4d37d4)"><path fill="#ff3333" d="M 218.714844 239.414062 L 156.269531 239.414062 L 156.269531 51.855469 L 218.714844 51.855469 Z M 218.714844 239.414062 " fill-opacity="1" fill-rule="nonzero"/></g><g fill="#000000" fill-opacity="1"><g transform="translate(100.00195, 281.414718)"><g><path d="M 11.4375 -21.84375 C 13.632812 -21.84375 15.492188 -21.304688 17.015625 -20.234375 C 18.535156 -19.160156 19.546875 -17.597656 20.046875 -15.546875 L 15.75 -14.515625 C 15.488281 -15.640625 14.957031 -16.519531 14.15625 -17.15625 C 13.351562 -17.800781 12.375 -18.125 11.21875 -18.125 C 9.539062 -18.125 8.226562 -17.523438 7.28125 -16.328125 C 6.34375 -15.140625 5.875 -13.328125 5.875 -10.890625 C 5.875 -8.648438 6.257812 -6.832031 7.03125 -5.4375 C 7.800781 -4.050781 9.175781 -3.359375 11.15625 -3.359375 C 12.414062 -3.359375 13.4375 -3.757812 14.21875 -4.5625 C 15 -5.363281 15.5625 -6.472656 15.90625 -7.890625 L 20.09375 -6.5625 C 19.519531 -4.226562 18.460938 -2.488281 16.921875 -1.34375 C 15.378906 -0.207031 13.46875 0.359375 11.1875 0.359375 C 9.25 0.359375 7.539062 -0.0859375 6.0625 -0.984375 C 4.582031 -1.890625 3.4375 -3.160156 2.625 -4.796875 C 1.8125 -6.441406 1.40625 -8.363281 1.40625 -10.5625 C 1.40625 -12.519531 1.742188 -14.351562 2.421875 -16.0625 C 3.109375 -17.769531 4.203125 -19.160156 5.703125 -20.234375 C 7.203125 -21.304688 9.113281 -21.84375 11.4375 -21.84375 Z M 11.4375 -21.84375 "/></g></g></g><g fill="#000000" fill-opacity="1"><g transform="translate(121.661929, 281.414718)"><g><path d="M 16.59375 -20.796875 C 17.488281 -20.410156 18.234375 -19.738281 18.828125 -18.78125 C 19.429688 -17.820312 19.734375 -16.710938 19.734375 -15.453125 C 19.734375 -13.847656 19.238281 -12.5 18.25 -11.40625 C 17.257812 -10.320312 15.863281 -9.671875 14.0625 -9.453125 C 14.84375 -8.910156 15.4375 -8.460938 15.84375 -8.109375 C 16.257812 -7.765625 16.710938 -7.273438 17.203125 -6.640625 C 17.691406 -6.015625 18.296875 -5.117188 19.015625 -3.953125 L 21.484375 0 L 16.296875 0 L 12.8125 -5.21875 C 12.03125 -6.375 11.421875 -7.195312 10.984375 -7.6875 C 10.554688 -8.1875 10.101562 -8.523438 9.625 -8.703125 C 9.144531 -8.878906 8.46875 -8.96875 7.59375 -8.96875 L 6.515625 -8.96875 L 6.515625 0 L 2.1875 0 L 2.1875 -21.484375 L 11.578125 -21.484375 C 12.597656 -21.484375 13.519531 -21.4375 14.34375 -21.34375 C 15.175781 -21.25 15.925781 -21.066406 16.59375 -20.796875 Z M 13.53125 -12.625 C 14.050781 -12.789062 14.46875 -13.09375 14.78125 -13.53125 C 15.101562 -13.96875 15.265625 -14.519531 15.265625 -15.1875 C 15.265625 -16.320312 14.773438 -17.109375 13.796875 -17.546875 C 13.535156 -17.671875 13.210938 -17.75 12.828125 -17.78125 C 12.453125 -17.820312 11.804688 -17.84375 10.890625 -17.84375 L 6.515625 -17.84375 L 6.515625 -12.390625 L 10.3125 -12.390625 C 11.875 -12.390625 12.945312 -12.46875 13.53125 -12.625 Z M 13.53125 -12.625 "/></g></g></g><g fill="#000000" fill-opacity="1"><g transform="translate(143.321908, 281.414718)"><g><path d="M 6.484375 -9 C 6.484375 -7.800781 6.53125 -6.941406 6.625 -6.421875 C 6.789062 -5.515625 7.207031 -4.773438 7.875 -4.203125 C 8.539062 -3.640625 9.523438 -3.359375 10.828125 -3.359375 C 12.023438 -3.359375 12.925781 -3.578125 13.53125 -4.015625 C 14.132812 -4.460938 14.523438 -5.066406 14.703125 -5.828125 C 14.878906 -6.597656 14.96875 -7.644531 14.96875 -8.96875 L 14.96875 -21.484375 L 19.296875 -21.484375 L 19.296875 -9.71875 C 19.296875 -7.914062 19.210938 -6.457031 19.046875 -5.34375 C 18.472656 -1.539062 15.773438 0.359375 10.953125 0.359375 C 8.367188 0.359375 6.4375 -0.0703125 5.15625 -0.9375 C 3.875 -1.8125 3.050781 -2.914062 2.6875 -4.25 C 2.332031 -5.59375 2.15625 -7.285156 2.15625 -9.328125 L 2.15625 -21.484375 L 6.484375 -21.484375 Z M 6.484375 -9 "/></g></g></g><g fill="#000000" fill-opacity="1"><g transform="translate(164.981887, 281.414718)"><g><path d="M 17.3125 -18.09375 L 5.546875 -3.625 L 17.765625 -3.625 L 17.765625 0 L 0.328125 0 L 0.328125 -3.90625 L 11.609375 -17.84375 L 1.59375 -17.84375 L 1.59375 -21.484375 L 17.3125 -21.484375 Z M 17.3125 -18.09375 "/></g></g></g><g fill="#000000" fill-opacity="1"><g transform="translate(183.311865, 281.414718)"><g/></g></g><g fill="#000000" fill-opacity="1"><g transform="translate(191.651861, 281.414718)"><g><path d="M 16.59375 -20.796875 C 17.488281 -20.410156 18.234375 -19.738281 18.828125 -18.78125 C 19.429688 -17.820312 19.734375 -16.710938 19.734375 -15.453125 C 19.734375 -13.847656 19.238281 -12.5 18.25 -11.40625 C 17.257812 -10.320312 15.863281 -9.671875 14.0625 -9.453125 C 14.84375 -8.910156 15.4375 -8.460938 15.84375 -8.109375 C 16.257812 -7.765625 16.710938 -7.273438 17.203125 -6.640625 C 17.691406 -6.015625 18.296875 -5.117188 19.015625 -3.953125 L 21.484375 0 L 16.296875 0 L 12.8125 -5.21875 C 12.03125 -6.375 11.421875 -7.195312 10.984375 -7.6875 C 10.554688 -8.1875 10.101562 -8.523438 9.625 -8.703125 C 9.144531 -8.878906 8.46875 -8.96875 7.59375 -8.96875 L 6.515625 -8.96875 L 6.515625 0 L 2.1875 0 L 2.1875 -21.484375 L 11.578125 -21.484375 C 12.597656 -21.484375 13.519531 -21.4375 14.34375 -21.34375 C 15.175781 -21.25 15.925781 -21.066406 16.59375 -20.796875 Z M 13.53125 -12.625 C 14.050781 -12.789062 14.46875 -13.09375 14.78125 -13.53125 C 15.101562 -13.96875 15.265625 -14.519531 15.265625 -15.1875 C 15.265625 -16.320312 14.773438 -17.109375 13.796875 -17.546875 C 13.535156 -17.671875 13.210938 -17.75 12.828125 -17.78125 C 12.453125 -17.820312 11.804688 -17.84375 10.890625 -17.84375 L 6.515625 -17.84375 L 6.515625 -12.390625 L 10.3125 -12.390625 C 11.875 -12.390625 12.945312 -12.46875 13.53125 -12.625 Z M 13.53125 -12.625 "/></g></g></g><g fill="#000000" fill-opacity="1"><g transform="translate(213.31184, 281.414718)"><g><path d="M 11.671875 -21.84375 C 13.929688 -21.84375 15.835938 -21.359375 17.390625 -20.390625 C 18.953125 -19.429688 20.125 -18.113281 20.90625 -16.4375 C 21.6875 -14.757812 22.078125 -12.847656 22.078125 -10.703125 C 22.078125 -8.429688 21.660156 -6.460938 20.828125 -4.796875 C 20.003906 -3.140625 18.8125 -1.863281 17.25 -0.96875 C 15.6875 -0.0820312 13.847656 0.359375 11.734375 0.359375 C 9.515625 0.359375 7.617188 -0.0976562 6.046875 -1.015625 C 4.472656 -1.941406 3.285156 -3.226562 2.484375 -4.875 C 1.691406 -6.519531 1.296875 -8.4375 1.296875 -10.625 C 1.296875 -12.882812 1.691406 -14.859375 2.484375 -16.546875 C 3.285156 -18.234375 4.460938 -19.535156 6.015625 -20.453125 C 7.566406 -21.378906 9.453125 -21.84375 11.671875 -21.84375 Z M 5.765625 -10.734375 C 5.765625 -9.054688 6.03125 -7.664062 6.5625 -6.5625 C 7.101562 -5.46875 7.820312 -4.660156 8.71875 -4.140625 C 9.625 -3.617188 10.617188 -3.359375 11.703125 -3.359375 C 12.703125 -3.359375 13.640625 -3.585938 14.515625 -4.046875 C 15.398438 -4.503906 16.132812 -5.285156 16.71875 -6.390625 C 17.3125 -7.503906 17.609375 -8.972656 17.609375 -10.796875 C 17.609375 -12.941406 17.140625 -14.695312 16.203125 -16.0625 C 15.265625 -17.4375 13.753906 -18.125 11.671875 -18.125 C 9.609375 -18.125 8.109375 -17.429688 7.171875 -16.046875 C 6.234375 -14.671875 5.765625 -12.898438 5.765625 -10.734375 Z M 5.765625 -10.734375 "/></g></g></g><g fill="#000000" fill-opacity="1"><g transform="translate(236.651812, 281.414718)"><g><path d="M 14.28125 -21.484375 L 14.28125 -7.171875 C 14.28125 -4.910156 13.726562 -3.085938 12.625 -1.703125 C 11.53125 -0.328125 9.710938 0.359375 7.171875 0.359375 C 2.847656 0.359375 0.628906 -1.976562 0.515625 -6.65625 L 4.625 -7.203125 L 4.625 -7.015625 C 4.675781 -5.921875 4.878906 -5.035156 5.234375 -4.359375 C 5.585938 -3.691406 6.28125 -3.359375 7.3125 -3.359375 C 8.394531 -3.359375 9.101562 -3.675781 9.4375 -4.3125 C 9.78125 -4.957031 9.953125 -5.910156 9.953125 -7.171875 L 9.953125 -21.484375 Z M 14.28125 -21.484375 "/></g></g></g><g fill="#000000" fill-opacity="1"><g transform="translate(253.331792, 281.414718)"><g><path d="M 21.5625 0 L 16.828125 0 L 14.96875 -4.859375 L 6.390625 -4.859375 L 4.625 0 L 0 0 L 8.375 -21.484375 L 12.953125 -21.484375 Z M 7.703125 -8.484375 L 13.59375 -8.484375 L 10.625 -16.46875 Z M 7.703125 -8.484375 "/></g></g></g><g fill="#000000" fill-opacity="1"><g transform="translate(99.734998, 311.884316)"><g><path d="M 12.546875 -6.875 L 16.34375 -21.484375 L 22.859375 -21.484375 L 22.859375 0 L 18.84375 0 L 18.84375 -16.921875 L 14.609375 0 L 10.4375 0 L 6.15625 -16.890625 L 6.15625 0 L 2.125 0 L 2.125 -21.484375 L 8.609375 -21.484375 Z M 12.546875 -6.875 "/></g></g></g><g fill="#000000" fill-opacity="1"><g transform="translate(126.944967, 311.884316)"><g><path d="M 18.125 -17.84375 L 6.515625 -17.84375 L 6.515625 -13.078125 L 17.3125 -13.078125 L 17.3125 -9.453125 L 6.515625 -9.453125 L 6.515625 -3.625 L 18.515625 -3.625 L 18.515625 0 L 2.1875 0 L 2.1875 -21.484375 L 18.125 -21.484375 Z M 18.125 -17.84375 "/></g></g></g><g fill="#000000" fill-opacity="1"><g transform="translate(149.174948, 311.884316)"><g><path d="M 10.078125 -14.578125 L 14.28125 -21.484375 L 19.3125 -21.484375 L 12.625 -11.046875 L 19.984375 0 L 14.765625 0 L 9.984375 -7.40625 L 5.21875 0 L 0 0 L 7.34375 -11.21875 L 0.6875 -21.484375 L 5.765625 -21.484375 Z M 10.078125 -14.578125 "/></g></g></g><g fill="#000000" fill-opacity="1"><g transform="translate(171.404929, 311.884316)"><g><path d="M 6.359375 0 L 2.046875 0 L 2.046875 -21.484375 L 6.359375 -21.484375 Z M 6.359375 0 "/></g></g></g><g fill="#000000" fill-opacity="1"><g transform="translate(181.964924, 311.884316)"><g><path d="M 11.4375 -21.84375 C 13.632812 -21.84375 15.492188 -21.304688 17.015625 -20.234375 C 18.535156 -19.160156 19.546875 -17.597656 20.046875 -15.546875 L 15.75 -14.515625 C 15.488281 -15.640625 14.957031 -16.519531 14.15625 -17.15625 C 13.351562 -17.800781 12.375 -18.125 11.21875 -18.125 C 9.539062 -18.125 8.226562 -17.523438 7.28125 -16.328125 C 6.34375 -15.140625 5.875 -13.328125 5.875 -10.890625 C 5.875 -8.648438 6.257812 -6.832031 7.03125 -5.4375 C 7.800781 -4.050781 9.175781 -3.359375 11.15625 -3.359375 C 12.414062 -3.359375 13.4375 -3.757812 14.21875 -4.5625 C 15 -5.363281 15.5625 -6.472656 15.90625 -7.890625 L 20.09375 -6.5625 C 19.519531 -4.226562 18.460938 -2.488281 16.921875 -1.34375 C 15.378906 -0.207031 13.46875 0.359375 11.1875 0.359375 C 9.25 0.359375 7.539062 -0.0859375 6.0625 -0.984375 C 4.582031 -1.890625 3.4375 -3.160156 2.625 -4.796875 C 1.8125 -6.441406 1.40625 -8.363281 1.40625 -10.5625 C 1.40625 -12.519531 1.742188 -14.351562 2.421875 -16.0625 C 3.109375 -17.769531 4.203125 -19.160156 5.703125 -20.234375 C 7.203125 -21.304688 9.113281 -21.84375 11.4375 -21.84375 Z M 11.4375 -21.84375 "/></g></g></g><g fill="#000000" fill-opacity="1"><g transform="translate(205.844909, 311.884316)"><g><path d="M 21.5625 0 L 16.828125 0 L 14.96875 -4.859375 L 6.390625 -4.859375 L 4.625 0 L 0 0 L 8.375 -21.484375 L 12.953125 -21.484375 Z M 7.703125 -8.484375 L 13.59375 -8.484375 L 10.625 -16.46875 Z M 7.703125 -8.484375 "/></g></g></g><g fill="#000000" fill-opacity="1"><g transform="translate(229.724882, 311.884316)"><g><path d="M 15.203125 -7.140625 L 15.203125 -21.484375 L 19.234375 -21.484375 L 19.234375 0 L 14.875 0 L 6.234375 -14.015625 L 6.234375 0 L 2.21875 0 L 2.21875 -21.484375 L 6.421875 -21.484375 Z M 15.203125 -7.140625 "/></g></g></g><g fill="#000000" fill-opacity="1"><g transform="translate(253.604854, 311.884316)"><g><path d="M 21.5625 0 L 16.828125 0 L 14.96875 -4.859375 L 6.390625 -4.859375 L 4.625 0 L 0 0 L 8.375 -21.484375 L 12.953125 -21.484375 Z M 7.703125 -8.484375 L 13.59375 -8.484375 L 10.625 -16.46875 Z M 7.703125 -8.484375 "/></g></g></g></svg>