<svg xmlns="http://www.w3.org/2000/svg" xmlns:xlink="http://www.w3.org/1999/xlink" width="500" zoomAndPan="magnify" viewBox="0 0 375 374.999991" height="500" preserveAspectRatio="xMidYMid meet" version="1.0"><defs><clipPath id="9b1caf8f5b"><path d="M 18.753906 131.101562 L 356.253906 131.101562 L 356.253906 243.867188 L 18.753906 243.867188 Z M 18.753906 131.101562 " clip-rule="nonzero"/></clipPath><clipPath id="9983154983"><path d="M 131.300781 18.730469 L 243.667969 18.730469 L 243.667969 356.230469 L 131.300781 356.230469 Z M 131.300781 18.730469 " clip-rule="nonzero"/></clipPath><clipPath id="48afdf1562"><path d="M 23.570312 187.683594 L 186.867188 187.683594 L 186.867188 350.984375 L 23.570312 350.984375 Z M 23.570312 187.683594 " clip-rule="nonzero"/></clipPath><clipPath id="d6684b63f4"><path d="M 75 233 L 186.867188 233 L 186.867188 350.984375 L 75 350.984375 Z M 75 233 " clip-rule="nonzero"/></clipPath><clipPath id="a6139c0bc1"><path d="M 187.316406 23.570312 L 351.964844 23.570312 L 351.964844 188 L 187.316406 188 Z M 187.316406 23.570312 " clip-rule="nonzero"/></clipPath><clipPath id="fa16f040a2"><path d="M 229 66 L 351.964844 66 L 351.964844 188 L 229 188 Z M 229 66 " clip-rule="nonzero"/></clipPath></defs><g clip-path="url(#9b1caf8f5b)"><path fill="#ff3333" d="M 18.753906 243.867188 L 18.753906 131.101562 L 356.253906 131.101562 L 356.253906 243.867188 Z M 18.753906 243.867188 " fill-opacity="1" fill-rule="nonzero"/></g><g clip-path="url(#9983154983)"><path fill="#ff3333" d="M 243.667969 356.230469 L 131.300781 356.230469 L 131.300781 18.730469 L 243.667969 18.730469 Z M 243.667969 356.230469 " fill-opacity="1" fill-rule="nonzero"/></g><g clip-path="url(#48afdf1562)"><path fill="#86d008" d="M 105.40625 351.425781 C 60.269531 351.425781 23.535156 314.707031 23.535156 269.554688 C 23.535156 224.40625 60.257812 187.695312 105.40625 187.695312 C 150.554688 187.695312 187.277344 224.417969 187.277344 269.566406 C 187.277344 314.71875 150.546875 351.425781 105.40625 351.425781 Z M 105.40625 351.425781 " fill-opacity="1" fill-rule="nonzero"/></g><g clip-path="url(#d6684b63f4)"><path fill="#6db22b" d="M 149.578125 233.046875 L 75.550781 307.074219 L 118.808594 350.335938 C 157.230469 343.988281 186.703125 310.800781 187.277344 270.738281 Z M 149.578125 233.046875 " fill-opacity="1" fill-rule="nonzero"/></g><path fill="#ffffff" d="M 151.21875 234.636719 C 146.492188 229.503906 142.207031 226.050781 137.074219 230.765625 L 84.664062 279.085938 L 71.429688 263.960938 C 66.839844 258.71875 62.203125 261.699219 56.949219 266.292969 C 51.691406 270.882812 47.808594 275.351562 52.414062 280.597656 L 66.074219 296.226562 L 77.226562 308.988281 C 80.230469 312.421875 85.476562 312.703125 88.828125 309.617188 L 101.289062 298.128906 L 154.203125 249.355469 C 159.335938 244.628906 155.945312 239.765625 151.21875 234.636719 Z M 151.21875 234.636719 " fill-opacity="1" fill-rule="nonzero"/><g clip-path="url(#a6139c0bc1)"><path fill="#dd3333" d="M 269.332031 187.667969 C 224.09375 187.667969 187.28125 150.867188 187.28125 105.621094 C 187.28125 60.371094 224.082031 23.582031 269.332031 23.582031 C 314.582031 23.582031 351.382812 60.382812 351.382812 105.628906 C 351.382812 150.878906 314.570312 187.667969 269.332031 187.667969 Z M 269.332031 187.667969 " fill-opacity="1" fill-rule="nonzero"/></g><g clip-path="url(#fa16f040a2)"><path fill="#aa3333" d="M 351.359375 107.3125 L 310.113281 66.484375 L 229.6875 149.808594 L 266.996094 187.636719 C 267.773438 187.660156 268.554688 187.667969 269.332031 187.667969 C 314.003906 187.667969 350.457031 151.78125 351.359375 107.3125 Z M 351.359375 107.3125 " fill-opacity="1" fill-rule="nonzero"/></g><path fill="#ffffff" d="M 312.03125 67.984375 C 307.429688 62.988281 303.246094 59.613281 298.25 64.214844 L 223.574219 133.058594 C 218.578125 137.660156 221.691406 142.058594 226.304688 147.054688 C 230.90625 152.050781 235.269531 155.761719 240.265625 151.152344 L 314.941406 82.308594 C 319.925781 77.707031 316.632812 72.980469 312.03125 67.984375 Z M 312.03125 67.984375 " fill-opacity="1" fill-rule="nonzero"/><path fill="#ffffff" d="M 226.417969 67.984375 C 231.019531 62.988281 235.203125 59.613281 240.199219 64.214844 L 314.875 133.058594 C 319.871094 137.660156 316.757812 142.058594 312.144531 147.054688 C 307.542969 152.050781 303.179688 155.761719 298.179688 151.152344 L 223.519531 82.320312 C 218.523438 77.707031 221.816406 72.980469 226.417969 67.984375 Z M 226.417969 67.984375 " fill-opacity="1" fill-rule="nonzero"/></svg>